<svg width="24" height="28" viewBox="0 0 24 28" fill="none" xmlns="http://www.w3.org/2000/svg">
<path d="M0 8.65693C0 5.44363 2.60489 2.83875 5.81818 2.83875H18.1818C21.3951 2.83875 24 5.44363 24 8.65693V21.7948C24 25.0081 21.3951 27.6129 18.1818 27.6129H5.81818C2.60489 27.6129 0 25.008 0 21.7948V8.65693Z" fill="#F4F9FD"/>
<path fill-rule="evenodd" clip-rule="evenodd" d="M18.1818 5.02056H5.81818C3.80987 5.02056 2.18182 6.64862 2.18182 8.65693V21.7948C2.18182 23.8031 3.80987 25.4311 5.81818 25.4311H18.1818C20.1901 25.4311 21.8182 23.8031 21.8182 21.7948V8.65693C21.8182 6.64862 20.1901 5.02056 18.1818 5.02056ZM5.81818 2.83875C2.60489 2.83875 0 5.44363 0 8.65693V21.7948C0 25.008 2.60489 27.6129 5.81818 27.6129H18.1818C21.3951 27.6129 24 25.0081 24 21.7948V8.65693C24 5.44363 21.3951 2.83875 18.1818 2.83875H5.81818Z" fill="#142036"/>
<path d="M4 14.909C4 14.5074 4.32561 14.1818 4.72727 14.1818H7.63636C8.03803 14.1818 8.36364 14.5074 8.36364 14.909V17.4545C8.36364 17.8562 8.03803 18.1818 7.63636 18.1818H4.72727C4.32561 18.1818 4 17.8562 4 17.4545V14.909Z" fill="#F8A654"/>
<path d="M5.41937 1.41936C5.41937 0.635467 6.05484 0 6.83873 0C7.62262 0 8.25808 0.635467 8.25808 1.41936V2.96774C8.25808 3.75163 7.62262 4.3871 6.83873 4.3871C6.05484 4.3871 5.41937 3.75163 5.41937 2.96774V1.41936Z" fill="#142340"/>
<path d="M15.2258 1.41936C15.2258 0.635467 15.8613 0 16.6452 0C17.4291 0 18.0645 0.635467 18.0645 1.41936V2.96774C18.0645 3.75163 17.4291 4.3871 16.6452 4.3871C15.8613 4.3871 15.2258 3.75163 15.2258 2.96774V1.41936Z" fill="#142340"/>
<path d="M2.18182 8.72729C2.18182 6.51816 3.97268 4.72729 6.18182 4.72729H17.8182C20.0273 4.72729 21.8182 6.51816 21.8182 8.7273V10.1818H2.18182V8.72729Z" fill="#2DD4BF"/>
<path d="M1.45459 10.1818H22.5455V12.3636H1.45459V10.1818Z" fill="#142036"/>
</svg>
